<?xml version="1.0" encoding="UTF-8"?>
<!DOCTYPE svg PUBLIC "-//W3C//DTD SVG 1.1//EN" "http://www.w3.org/Graphics/SVG/1.1/DTD/svg11.dtd">
<!-- Creator: CorelDRAW -->
<svg xmlns="http://www.w3.org/2000/svg" xml:space="preserve" width="137.989mm" height="125.681mm" version="1.1" style="shape-rendering:geometricPrecision; text-rendering:geometricPrecision; image-rendering:optimizeQuality; fill-rule:evenodd; clip-rule:evenodd"
viewBox="0 0 2196.11 2000.23"
 xmlns:xlink="http://www.w3.org/1999/xlink"
 xmlns:xodm="http://www.corel.com/coreldraw/odm/2003">
 <defs>
  <style type="text/css">
   <![CDATA[
    .fil1 {fill:none}
    .fil0 {fill:#DD7F00}
   ]]>
  </style>
 </defs>
 <g id="Слой_x0020_1">
  <metadata id="CorelCorpID_0Corel-Layer"/>
  <g id="_2250208404528">
   <path class="fil0" d="M1395.89 1000.42c8.58,-40.66 17.44,-63.22 16.75,-111.66 -1.62,-113.44 -48.4,-83.55 -3.16,-148.96 16.3,-23.57 64.59,-100.17 81.45,-107.64 46.88,60.92 85.83,175.92 81.5,277.87 -13.19,310.49 -322.96,524.97 -593.87,437.68 1.18,-16.3 33.06,-51.77 48.03,-72.87 96.19,-135.53 16.79,-31.92 190.27,-91.52 -7.06,-18.73 -72.16,-91.28 0.84,-172.03 71.18,-78.73 162.07,-14.05 178.18,-10.88zm-542.2 515.26l56.22 -75.97c31.05,5.13 57.41,17.26 92.3,22.53 486.32,73.37 805.66,-402.93 626.36,-803.91 -9.07,-20.29 -32.83,-58.46 -35.53,-71.08 112.71,56.43 259.52,199.67 337.02,304.42 85.61,115.71 90.97,95.99 20.13,191 -135.82,182.15 -316.12,344.29 -545.17,419.12 -81.41,26.6 -170.03,47.45 -267.69,50.97 -44.27,1.59 -247.76,-7.6 -283.63,-37.08zm788.98 -1098.45c7.13,-18.55 46.6,-68.7 61.58,-89.91 23.98,-33.96 41.44,-57.87 63.44,-88.1 51.14,-70.25 116.24,-134.97 78.49,-198.31 -18.01,-30.21 -60.47,-52.25 -104.86,-34.62 -31.84,12.65 -52.32,50.37 -72.47,79.2l-564.1 787.66c-20.5,28.61 -42.45,57.3 -61.46,86.01 -21.04,31.76 -42.74,59.34 -63.34,88.07l-439.25 613.41c-45.11,62.23 -85.24,117.53 -126.64,176.47 -21.25,30.24 -50.27,61.99 -29.6,112.11 12.37,30 47.25,57.57 94.5,49.65 41.49,-6.95 59.63,-44.49 79.63,-71.97 22.15,-30.44 40.57,-56.57 61.87,-85.66 40.8,-55.72 78.58,-117.01 125.24,-173.51 20.37,1.49 60.05,15.75 83.76,21.8 28.66,7.32 58.17,13.66 86.09,18.27 188.24,31.1 379.68,13.55 553.95,-48.9 214.82,-76.98 375.6,-199.68 504.19,-337.89 68.91,-74.07 126.15,-151.99 180.66,-240.28 54.66,-88.55 51.61,-73.08 14.24,-136.77 -96.35,-164.19 -156.05,-226.22 -281.85,-349.94 -43.78,-43.06 -125.35,-103.75 -179.43,-136.39 -14.43,-8.71 -52.95,-29.68 -64.64,-40.38z"/>
   <path class="fil0" d="M1103.58 447.33c35.12,0 68.61,1.53 102.87,6.15 63.75,8.6 58.86,17.43 79.47,-13.96 17.33,-26.4 78.6,-105.29 86.97,-123.35 -32.15,-27.14 -204.69,-38.2 -260.89,-38.22 -225.29,-0.06 -422.08,59.48 -584.71,156.53 -196.11,117.03 -330.54,254.24 -454.63,438.14 -23.04,34.14 -43.26,69.28 -66.99,110.47 -13.65,23.7 0.04,34.17 12.52,56.02 76.62,134.19 158.36,241.34 272.74,350.73 26.98,25.8 161.48,140.35 202.15,153.26 10.61,-8.57 93.92,-123.82 96.52,-136.45 -149.05,-97.48 -260.97,-205.09 -358.88,-347.92 -36.64,-53.45 -44.35,-50.21 -20.61,-86.46 41.26,-63.01 78.79,-109.79 122.37,-159.93 162.02,-186.45 430.28,-365.01 771.11,-365.01z"/>
   <path class="fil0" d="M842.54 1057.07c16.06,-15.47 28.17,-38.36 42.62,-58.11 39.66,-54.22 278.45,-381.93 287.51,-406.61 -37.22,-6.88 -101.62,-17.62 -136.46,1.76 -12.87,36.35 -9.06,57.71 -28.33,93.56 -75.71,140.84 -194.5,131.03 -208.21,146.15 -18.99,20.94 -5.86,131.47 16.98,181.53l25.88 41.72z"/>
   <path class="fil0" d="M741.43 1196.14c-16.53,-26.76 -34.81,-45.86 -52.11,-78.33 -33.66,-63.18 -53.71,-130.96 -56.47,-203.63 -1.75,-46.22 7.88,-79.75 8.13,-118.56 -44.05,-21.42 -52.52,-41.66 -84.74,-74.39 -12.07,12.45 -18.88,58.81 -21.6,75.16 -22.77,136.6 0.58,266.22 66.83,383.93 13.5,23.99 62.14,97.89 81.09,102.44 12.78,-17.39 52.71,-68.93 58.88,-86.63z"/>
  </g>
  <rect class="fil1" x="2.45" y="6.28" width="2190.82" height="1992.57"/>
 </g>
</svg>
