<?xml version="1.0" encoding="UTF-8"?>
<!DOCTYPE svg PUBLIC "-//W3C//DTD SVG 1.1//EN" "http://www.w3.org/Graphics/SVG/1.1/DTD/svg11.dtd">
<!-- Creator: CorelDRAW -->
<svg xmlns="http://www.w3.org/2000/svg" xml:space="preserve" width="138.077mm" height="125.2mm" version="1.1" style="shape-rendering:geometricPrecision; text-rendering:geometricPrecision; image-rendering:optimizeQuality; fill-rule:evenodd; clip-rule:evenodd"
viewBox="0 0 2206.8 2001"
 xmlns:xlink="http://www.w3.org/1999/xlink"
 xmlns:xodm="http://www.corel.com/coreldraw/odm/2003">
 <defs>
  <style type="text/css">
   <![CDATA[
    .fil1 {fill:none}
    .fil0 {fill:#DD7F00}
   ]]>
  </style>
 </defs>
 <g id="Слой_x0020_1">
  <metadata id="CorelCorpID_0Corel-Layer"/>
  <g id="_2250204513456">
   <path class="fil0" d="M2011.06 1002.79c-44.31,82.71 -127.63,179.69 -201.5,253.66 -254.52,254.85 -652.69,377.07 -1017.25,247.77 -244.88,-86.86 -393.73,-229.12 -522.48,-390.74 -18.69,-23.46 -30.38,-40.66 -48.06,-66.18 -20.95,-30.25 -35.78,-38.04 -12.81,-72.16 35.49,-52.71 61.57,-88.72 97.32,-131.02 225.27,-266.52 569.3,-454.58 958.17,-383.33 65.76,12.05 98.83,33.6 150.94,77.87 138.16,117.36 198.61,313.91 140.02,501.92 -111.47,357.71 -606.22,456.02 -838.47,120.43 -88.13,-127.34 -83.89,-224.44 -73.43,-361.17 -39.61,-35.05 -38.75,-21.95 -85.48,-79.01 -20.71,22.36 -28.8,112.61 -30.16,150.8 -5.36,150.95 48.36,302.27 142.41,403.74 301.55,325.32 772.94,227.35 949.41,-111.67 81.46,-156.49 88.64,-352.56 9.3,-517.53 -9.61,-19.99 -22.87,-39.6 -30.03,-57.63 23.99,7.12 97.79,62.04 123.65,82.59 87.75,69.74 262.72,253.43 288.44,331.66zm-990.92 -723.72c-255.53,28.74 -453.88,104.99 -651.02,264.04 -83.41,67.29 -157.04,141.48 -225.61,231.1 -32.19,42.08 -66.76,88.58 -93.84,134.57 -64.22,109.05 -59.8,83.69 -22.77,147.3 234.65,403.13 653.12,706.33 1157.32,667.77 439.47,-33.61 754.66,-292.67 970.89,-629.1 15.82,-24.61 28.79,-48.79 42.43,-71.73 10.88,-18.3 13.38,-20.43 0.9,-41.31 -7.13,-11.92 -13.03,-22.38 -21.67,-37.49 -105.07,-183.59 -266.22,-361.17 -440.01,-473.18 -171.9,-110.8 -441.01,-222.98 -716.63,-191.98z"/>
   <path class="fil0" d="M804.05 834.39c-24.16,34.1 -1.28,142.75 12.67,176.39 67.83,163.64 225.81,228.62 405.36,173.98 -13.55,-28.12 -32.83,-40.83 -33.65,-84.75 -1.25,-66.43 53.04,-123.93 117.97,-126.74 55.2,-2.39 68.33,25.96 93.04,28.79 62.04,-139.53 -17.89,-349.61 -206.4,-405.91 -31.17,-9.31 -110.67,-18.92 -144.17,-6.91 -22.28,7.99 -4.54,48 -48.09,116.25 -78.62,123.18 -172.87,112.12 -196.72,128.89z"/>
  </g>
  <rect class="fil1" x="3.36" y="-0" width="2200.08" height="2001"/>
 </g>
</svg>
